<?xml version="1.0" encoding="utf-8"?>
<!-- Generator: Adobe Illustrator 19.0.0, SVG Export Plug-In . SVG Version: 6.00 Build 0)  -->
<svg version="1.1" id="Layer_1" xmlns="http://www.w3.org/2000/svg" xmlns:xlink="http://www.w3.org/1999/xlink" x="0px" y="0px"
	 viewBox="0 0 260 300" style="enable-background:new 0 0 260 300;" xml:space="preserve">
<style type="text/css">
	.st0{fill:#FFFF00;}
	.st1{fill:none;stroke:#000000;stroke-width:3;stroke-linejoin:round;stroke-miterlimit:10;}
	.st2{fill:#00FFBF;}
	.st3{fill:#FFFFFF;}
	.st4{fill:none;stroke:#000000;stroke-width:3;stroke-linecap:round;stroke-linejoin:round;stroke-miterlimit:10;}
</style>
<g>
	<path class="st0" d="M160.4,44.4c5.4-1.4,20.4-2.9,25.8,20.4c5.4,23.3,7.9,34.3,7.9,34.3l-19.8,5.2L160.4,44.4z"/>
	<path class="st1" d="M160.4,44.4c5.4-1.4,20.4-2.9,25.8,20.4c5.4,23.3,7.9,34.3,7.9,34.3l-19.8,5.2L160.4,44.4z"/>
	<path d="M124.4,38.3c-5.1-2.3-19.7-6.1-28.4,16S83.4,86.9,83.4,86.9l18.9,8.4L124.4,38.3z"/>
	<path class="st2" d="M227.4,181.3l-29.6-83.9l-26.9,8l8.8,26.5h0c-2.4-8.3-8.8-6-8.8-6l-21.7,6h-38l-16.8-6l11.7-28.6L75.8,83.2
		L39,175.6c-8.6,21.9-4.9,39.2,6.8,48.5c5.1,4.1,22.9,12.1,34-8.9l5.7-14v59.9H184v-55.9l5.3,13c10.3,19.6,26.9,12.1,31.7,8.3
		C232,217.9,235.3,201.7,227.4,181.3"/>
	<path class="st3" d="M139.4,39.5c-25.3,0-34.3,13.5-32.3,35.3l4.1,57.2h0c0,8.4,11.8,13.4,21.8,13.4c9.9,0,16.2-6.4,16.2-13.4h0
		v-12.7c13.9,0,21.7-9.2,21.7-33.6S164.8,39.5,139.4,39.5"/>
	<path class="st1" d="M111.2,132l-4.1-57.2c-2-21.8,6.9-35.3,32.3-35.3c25.3,0,31.5,21.8,31.5,46.2s-7.8,33.6-21.7,33.6V132"/>
	<path class="st0" d="M124.4,38.3c-5.1-2.3-19.7-6.2-28.4,16c-8.6,22.2-12.7,32.6-12.7,32.6l18.9,8.4L124.4,38.3z"/>
	<path class="st1" d="M124.4,38.3c-5.1-2.3-19.7-6.2-28.4,16c-8.6,22.2-12.7,32.6-12.7,32.6l18.9,8.4L124.4,38.3z"/>
	<path class="st4" d="M153.7,71.7l11.9,4.5 M130.5,76.1l13-4.2 M72.6,179.3l33.5-81.9L75.8,83.2L39,175.6
		c-8.6,21.9-4.9,39.2,6.8,48.5c5.1,4.1,22.9,12.1,34-8.9l5.7-14v59.9H184v-55.9l5.3,13c10.3,19.6,26.9,12.1,31.7,8.3
		c11-8.7,14.4-24.8,6.4-45.2l-29.6-83.9l-26.9,8l26.4,79.7 M94.4,126l16.8,6c0,8.4,11.8,13.4,21.8,13.4c9.9,0,16.2-6.4,16.2-13.4
		l21.7-6c0,0,6.4-2.3,8.8,6"/>
</g>
</svg>
