<?xml version="1.0" encoding="utf-8"?>
<!-- Generator: Adobe Illustrator 19.0.0, SVG Export Plug-In . SVG Version: 6.00 Build 0)  -->
<svg version="1.1" id="Layer_1" xmlns="http://www.w3.org/2000/svg" xmlns:xlink="http://www.w3.org/1999/xlink" x="0px" y="0px"
	 viewBox="0 0 260 300" style="enable-background:new 0 0 260 300;" xml:space="preserve">
<style type="text/css">
	.st0{fill:#FF730A;}
	.st1{fill:#FFFFFF;}
	.st2{fill:none;stroke:#000000;stroke-width:3;stroke-miterlimit:10;}
	.st3{fill:#FFFF00;}
	.st4{fill:none;stroke:#000000;stroke-width:3;stroke-miterlimit:1;}
	.st5{fill:none;stroke:#000000;stroke-width:3;stroke-linecap:round;stroke-miterlimit:10;}
</style>
<g>
	<path class="st0" d="M178,132.5h-48.4h-5.6h-40c-27.9,0-37.2,12.2-37.2,27.1v77c0,16.7,5.7,28.1,27.7,26.5
		c9.8-0.7,30.5-9.2,50.5-18.4l0.5,0.3c40.9,24.4,84.9,16.1,84.9-6.3V161C210.2,142,202.6,132.5,178,132.5"/>
	<path class="st1" d="M128.6,203.7l-18-71.2L99,73.2c-2.5-22.6,3.8-36.7,34.2-36.7c30.4,0,31.4,20.7,31.4,46
		c0,25.3-2.9,31.8-19.6,31.8v18.2L128.6,203.7z"/>
	<path class="st1" d="M146.9,71.4c0,4.2-3.7,7.6-8.3,7.6c-4.6,0-8.3-3.4-8.3-7.6c0-4.2,3.7-7.6,8.3-7.6
		C143.2,63.8,146.9,67.2,146.9,71.4"/>
	<ellipse class="st2" cx="138.6" cy="71.4" rx="8.3" ry="7.6"/>
	<path class="st1" d="M168.9,71.4c0,4.2-3.7,7.6-8.3,7.6c-4.6,0-8.3-3.4-8.3-7.6c0-4.2,3.7-7.6,8.3-7.6
		C165.2,63.8,168.9,67.2,168.9,71.4"/>
	<ellipse class="st2" cx="160.6" cy="71.4" rx="8.3" ry="7.6"/>
</g>
<line class="st2" x1="152.3" y1="71.4" x2="146.9" y2="71.4"/>
<g>
	<path class="st2" d="M130.3,71.4h-23.1c0,0-4.3,0.4-4.3,6.2"/>
	<path class="st3" d="M158.3,198.9c0,0,5.1-7.5,13.6-5.3v23.7L158.3,198.9z"/>
	<path class="st3" d="M81.9,222.2c0,0-4.2,0.9-12.5,4.7c-8.4,3.8-9-3.2-9.4-9.1c-0.4-5.9,4.4-11.5,11.9-13.4
		c7.7-1.9,22.1-5.2,32.1,6.8l-21.1,7.9L81.9,222.2z"/>
	<path class="st4" d="M128.6,203.7l-18-71.2L99,73.2c-2.5-22.6,3.8-36.7,34.2-36.7s31.4,20.7,31.4,46s-2.9,31.8-19.6,31.8v18.2
		L128.6,203.7z M125.3,245c40.9,24.4,84.9,16.1,84.9-6.3V161c0-19-7.7-28.5-32.3-28.5h-33 M110.6,132.5H83.8
		c-27.9,0-37.2,12.2-37.2,27.1v77c0,16.7,5.7,28.1,27.7,26.5c22-1.6,99.8-42.8,99.8-42.8l-18.2-24.7c0,0-67.5,18.8-73.1,23.5"/>
	<path class="st3" d="M146.9,71.4c0,4.2-3.7,7.6-8.3,7.6c-4.6,0-8.3-3.4-8.3-7.6c0-4.2,3.7-7.6,8.3-7.6
		C143.2,63.8,146.9,67.2,146.9,71.4"/>
	<ellipse class="st2" cx="138.6" cy="71.4" rx="8.3" ry="7.6"/>
	<path class="st3" d="M168.9,71.4c0,4.2-3.7,7.6-8.3,7.6c-4.6,0-8.3-3.4-8.3-7.6c0-4.2,3.7-7.6,8.3-7.6
		C165.2,63.8,168.9,67.2,168.9,71.4"/>
	<ellipse class="st2" cx="160.6" cy="71.4" rx="8.3" ry="7.6"/>
</g>
<line class="st2" x1="152.3" y1="71.4" x2="146.9" y2="71.4"/>
<g>
	<path class="st5" d="M87.8,202.1v-27.9 M81.9,222.2c0,0-4.7,4.2-13.6,5.2c-9.2,1-7.9-3.7-8.3-9.6c-0.4-5.9,4.4-11.5,11.9-13.4
		c7.7-1.9,22.1-5.2,32.1,6.8l-21.1,7.9L81.9,222.2z M158.3,198.9c0,0,5.1-7.5,13.6-5.3v23.7L158.3,198.9z M171.9,217.2v-43.1
		 M130.3,71.4h-23.1c0,0-4.3,0.4-4.3,6.2"/>
</g>
</svg>
