<?xml version="1.0" encoding="utf-8"?>
<!-- Generator: Adobe Illustrator 19.0.0, SVG Export Plug-In . SVG Version: 6.00 Build 0)  -->
<svg version="1.1" id="Layer_1" xmlns="http://www.w3.org/2000/svg" xmlns:xlink="http://www.w3.org/1999/xlink" x="0px" y="0px"
	 viewBox="0 0 260 300" style="enable-background:new 0 0 260 300;" xml:space="preserve">
<style type="text/css">
	.st0{fill:#FF00FF;}
	.st1{fill:none;stroke:#000000;stroke-width:3;stroke-linecap:round;stroke-miterlimit:10;}
	.st2{fill:#FFD500;}
	.st3{fill:none;stroke:#000000;stroke-width:3;stroke-miterlimit:10;}
	.st4{fill:#FF0000;}
	.st5{fill:#FFFF00;}
	.st6{fill:#FF1F00;}
	.st7{fill:#1440FF;}
	.st8{fill:#FFFFFF;}
	.st9{fill:none;stroke:#28FF00;stroke-width:3;stroke-linecap:round;stroke-miterlimit:10;}
	.st10{fill:none;stroke:#000000;stroke-width:3;stroke-linecap:round;stroke-linejoin:round;stroke-miterlimit:10;}
</style>
<g>
	<path class="st0" d="M194.8,141.8l-7.4,41.4l-5.5-27.2c-3.4-17.8-5.9-27.3-24.7-27.3h-43H91.5H58.8c-21.3,0-28.4,11.7-28.4,26v95.7
		c0,6.2,5.8,12.9,14.2,12.9H47h67.9h40.6c14.5,0.6,17.2-12.3,15-28.1l0,0c8.7,12.3,19.1,12.8,23.6,12.2c4.5-0.7,15-5.2,17.8-18.5
		c1.5-7.3,14.4-81.4,14.4-81.4L194.8,141.8z"/>
	<path class="st1" d="M194.8,141.8l-7.4,41.4l-5.5-27.2c-3.4-17.8-5.9-27.3-24.7-27.3h-43H91.5H58.8c-21.3,0-28.4,11.7-28.4,26v95.7
		c0,6.2,5.8,12.9,14.2,12.9H47h67.9h40.6c14.5,0.6,17.2-12.3,15-28.1l0,0c8.7,12.3,19.1,12.8,23.6,12.2c4.5-0.7,15-5.2,17.8-18.5
		c1.5-7.3,14.4-81.4,14.4-81.4L194.8,141.8z"/>
	<path class="st2" d="M193.3,79.1H209c0-7.8-5.4-10.4-9.9-10.4h-5.8h-12h-5.8c-4.5,0-9.9,2.6-9.9,10.4h15.7H193.3z"/>
	<path class="st3" d="M193.3,79.1H209c0-7.8-5.4-10.4-9.9-10.4h-5.8h-12h-5.8c-4.5,0-9.9,2.6-9.9,10.4h15.7H193.3z"/>
	<path class="st2" d="M193.2,104.4h15.7c0,7.8-5.4,10.4-9.9,10.4h-5.8h-12h-5.8c-4.5,0-9.9-2.6-9.9-10.4h15.7H193.2z"/>
	<path class="st3" d="M193.2,104.4h15.7c0,7.8-5.4,10.4-9.9,10.4h-5.8h-12h-5.8c-4.5,0-9.9-2.6-9.9-10.4h15.7H193.2z"/>
	<path class="st4" d="M193.2,99.8h13.7c1.1,0,2.1-1.9,2.1-4.2c0-2.3-0.9-4.2-2.1-4.2h-13.7h-12h-13.7c-1.1,0-2.1,1.9-2.1,4.2
		c0,2.3,0.9,4.2,2.1,4.2h13.7H193.2z"/>
	<path class="st3" d="M193.2,99.8h13.7c1.1,0,2.1-1.9,2.1-4.2c0-2.3-0.9-4.2-2.1-4.2h-13.7h-12h-13.7c-1.1,0-2.1,1.9-2.1,4.2
		c0,2.3,0.9,4.2,2.1,4.2h13.7H193.2z"/>
	<path class="st5" d="M221,146.2c0,0,1.6-1.9,6.4-11.8c4.8-9.9,2.3-34.2-10.7-41.4c-13-7.2-9.7,17.8-9.7,17.8
		c-9.7,5.4-3.6,32.3-3.6,32.3l8.9,2.4L221,146.2z"/>
</g>
<polygon class="st6" points="155.1,263.2 126.4,263.2 123.9,211.9 157.6,211.9 "/>
<g>
	<path class="st7" d="M115.3,256.4c0,0,2.1,1.4,12.1,5.1c10,3.7,32.9-1.9,38.2-16.2c5.3-14.3-18.2-7.7-18.2-7.7
		c-6.4-9.3-31.3,0.4-31.3,0.4l-1.2,9.5L115.3,256.4z"/>
</g>
<polygon class="st8" points="159.1,211.9 122.2,211.9 123.8,205.7 157.5,205.7 "/>
<g>
	<path class="st9" d="M209.1,85.8c-2.2,0-2.2-1.9-4.3-1.9c-2.2,0-2.2,1.9-4.3,1.9c-2.2,0-2.2-1.9-4.3-1.9c-2.2,0-2.2,1.9-4.3,1.9
		c-2.2,0-2.2-1.9-4.3-1.9c-2.2,0-2.2,1.9-4.3,1.9s-2.2-1.9-4.3-1.9c-2.2,0-2.2,1.9-4.3,1.9c-2.2,0-2.2-1.9-4.4-1.9
		c-2.2,0-2.2,1.9-4.4,1.9"/>
	<path class="st8" d="M81,59.9c1.3-13.5,12.9-23.3,32.9-23.3c25.9,0,32.2,21.7,32.2,46c0,24.3-7.9,33.4-22.2,33.4v12.6
		c0,5.8-8.9,10.6-20,10.6c-11,0-18.9-4.7-18.9-10.6l-0.4-5.7l-1.7-21.3l-2,2.7l-0.6,4.8l-1.8,2.9l-2.5,2l-1.5,2.2v4.5l-0.6,2.7
		l-8-8.8l-6.7-6.4L60,102l1.8-3.5l2.2-2.7l2.2-3.2l0.9-5.2l3.3-2.7l1.4-3.4v-3.3l0.6-3l2.2-1.7l2.6-2.3l0.4-4.1l0.5-3.5l1.3-1.6
		L81,59.9z"/>
	<path class="st3" d="M82.9,101.7l1.7,21.3l0.4,5.7c0,5.8,7.9,10.6,18.9,10.6c11,0,20-4.7,20-10.6 M81,59.8
		c1.3-13.5,12.9-23.3,32.9-23.3c25.9,0,32.2,21.8,32.2,46.1s-7.9,33.4-22.2,33.4v12.6 M187.2,183.8l-5.4-27.8
		c-3.4-17.8-5.9-27.3-24.7-27.3h-33.2 M85,128.6H58.7c-21.3,0-28.4,11.7-28.4,26v95.7c0,6.2,5.8,12.9,14.2,12.9h70.3v-35.5H70.3
		c-3,0-5-2-5-5.2v-51.1"/>
	<path class="st10" d="M103.2,61.4c-1.4,3.1-3.6,2-5,5.1c-1.4,3.1,0.7,4.1-0.8,7.2c-1.4,3.1-3.6,2-5,5.1c-1.4,3.1,0.7,4.1-0.8,7.2
		c-1.4,3.1-3.6,2-5,5.1c-1.4,3.1,0.7,4.2-0.8,7.2c-1.4,3.1-3.6,2-5,5.1c-1.4,3.1,0.7,4.2-0.8,7.2c-1.4,3.1-3.6,2-5,5.1
		c-1.4,3.1,0.7,4.2-0.8,7.2l-14.6-15.1c1.4-3.1-0.7-4.2,0.8-7.2c1.4-3.1,3.6-2,5-5.1c1.4-3.1-0.7-4.2,0.8-7.2c1.4-3.1,3.6-2,5-5.1
		c1.4-3.1-0.7-4.1,0.8-7.2c1.4-3.1,3.6-2,5-5.1c1.4-3.1-0.7-4.2,0.8-7.2c1.4-3.1,3.6-2,5-5.1c1.4-3.1-0.7-4.1,0.8-7.2
		c1.4-3.1,3.6-2,5-5.1 M95.3,53.2c-1.4,3.1-3.6,2-5,5.1c-1.4,3.1,0.7,4.1-0.8,7.2c-1.4,3.1-3.6,2-5,5.1c-1.4,3.1,0.7,4.1-0.8,7.2
		c-1.4,3.1-3.6,2-5,5.1c-1.4,3.1,0.7,4.2-0.8,7.2c-1.4,3.1-3.6,2-5,5.1c-1.4,3.1,0.7,4.2-0.8,7.2c-1.4,3.1-3.6,2-5,5.1
		c-1.4,3.1,0.7,4.2-0.8,7.2 M183.5,204.4l11.2-62.6l31.6,5.7c0,0-12.9,74.2-14.4,81.4c-2.8,13.3-13.3,17.8-17.8,18.5
		c-4.5,0.7-14.9,0.1-23.6-12.2 M152.3,178.9c0,0,40.2,85.9,3.1,84.4H47"/>
	<path class="st3" d="M155.1,263.3h-28.7l-2.5-51.4h33.7L155.1,263.3z M221,146.2c0,0,1.6-1.9,6.4-11.8c4.8-9.9,2.3-34.2-10.7-41.4
		c-13-7.2-9.7,17.8-9.7,17.8c-9.7,5.4-3.6,32.3-3.6,32.3l8.9,2.4L221,146.2z"/>
	<path class="st5" d="M115.3,256.4c0,0,2.1,1.4,12.1,5.1c10,3.7,32.9-1.9,38.2-16.3c5.3-14.4-18.2-7.7-18.2-7.7
		c-6.4-9.4-31.3,0.4-31.3,0.4l-1.2,9.5L115.3,256.4z"/>
	<path class="st3" d="M115.3,256.4c0,0,2.1,1.4,12.1,5.1c10,3.7,32.9-1.9,38.2-16.3c5.3-14.4-18.2-7.7-18.2-7.7
		c-6.4-9.4-31.3,0.4-31.3,0.4l-1.2,9.5L115.3,256.4z"/>
</g>
<path class="st3" d="M140.6,205.6v-20.8l-11.3-8 M159.2,211.9h-37l1.6-6.2h33.8L159.2,211.9z"/>
<g>
	<path class="st1" d="M144.6,98c-12,1.2-20.2-1.7-20.2-9.3"/>
</g>
</svg>
